<svg xmlns="http://www.w3.org/2000/svg" id="github" fill="#ffffff" viewBox="0 0 512 601.0869" width="20" height="20"><path d="M0 326.655c0-34.815 6.827-67.925 20.48-99.328 26.965-63.487 72.192-108.714 135.68-135.68 31.403-13.653 64.512-20.48 99.33-20.48 34.814 0 67.924 6.827 99.327 20.48 62.805 26.624 108.032 71.85 135.68 135.68 13.653 32.427 20.48 65.537 20.48 99.328 0 33.793-6.827 66.902-20.48 99.328-27.648 64.17-72.875 109.74-135.68 136.704-31.403 13.654-64.513 20.48-99.328 20.48-34.818 0-67.927-6.826-99.33-20.48C92.673 535.38 47.447 489.813 20.48 425.983 6.828 394.58 0 361.473 0 326.655zm39.935 0c0 48.13 14.337 91.137 43.01 129.024 28.33 37.204 65.365 63.658 111.103 79.36v-40.96c0-20.48 6.827-35.33 20.48-44.545-6.826-.34-14.848-1.536-24.064-3.584-17.408-3.07-32.256-8.532-44.544-16.383-31.06-18.773-46.59-52.736-46.59-101.888 0-25.6 8.532-47.446 25.598-65.537-7.85-20.14-6.997-41.984 2.56-65.536h10.24c3.413 0 7.68.853 12.8 2.56 13.313 4.096 28.16 11.605 44.545 22.528 20.82-5.46 41.3-8.192 61.44-8.192s40.79 2.73 61.95 8.192c13.313-8.875 25.772-15.7 37.377-20.48 10.923-4.096 18.773-5.803 23.552-5.12l6.145.512c9.216 23.552 10.07 45.397 2.56 65.536 17.066 18.09 25.6 39.936 25.6 65.536 0 38.228-9.387 67.07-28.16 86.527-10.24 10.923-23.723 19.456-40.45 25.6-13.993 5.12-29.524 8.362-46.59 9.727 13.994 9.9 20.992 24.748 20.992 44.544v40.96c44.03-15.7 80.383-42.495 109.055-80.383 27.99-37.547 41.984-80.213 41.984-128 0-29.013-5.633-57.003-16.897-83.968-10.923-25.942-26.283-48.81-46.08-68.61-19.115-19.113-41.984-34.302-68.608-45.566-27.306-11.604-55.125-17.407-83.456-17.407-27.99 0-55.98 5.803-83.97 17.408-25.6 10.924-48.468 26.113-68.607 45.568-19.115 19.798-34.475 42.667-46.08 68.61-11.264 26.964-16.897 54.954-16.897 83.967z"/></svg>
