<svg xmlns="http://www.w3.org/2000/svg" id="google-plus" fill="#ffffff" viewBox="0 0 64 64" width="20" height="20"><path d="M34.942 4H18.196C10.688 4 3.623 9.688 3.623 16.276c0 6.733 5.118 12.167 12.755 12.167.53 0 1.047-.01 1.553-.047-.495.95-.85 2.018-.85 3.128 0 1.87 1.007 3.388 2.28 4.627-.962 0-1.89.03-2.903.03C7.157 36.18 0 42.1 0 48.242c0 6.05 7.847 9.832 17.147 9.832 10.602 0 16.457-6.015 16.457-12.064 0-4.85-1.43-7.754-5.855-10.882-1.515-1.072-4.41-3.677-4.41-5.21 0-1.794.513-2.678 3.215-4.79 2.77-2.163 4.73-5.205 4.73-8.744 0-4.213-1.876-8.32-5.398-9.673h5.31l3.748-2.708zm-5.85 40.966c.134.56.206 1.138.206 1.727 0 4.888-3.15 8.707-12.186 8.707-6.428 0-11.07-4.07-11.07-8.956 0-4.79 5.758-8.778 12.185-8.708 1.5.016 2.898.257 4.167.668 3.49 2.427 5.992 3.798 6.698 6.563zm-10.29-18.23c-4.316-.13-8.416-4.827-9.16-10.49-.745-5.668 2.148-10.004 6.462-9.875 4.313.13 8.415 4.677 9.16 10.342s-2.15 10.154-6.462 10.024zM52 16V4h-4v12H36v4h12v12h4V20h12v-4z"/></svg>
