<svg xmlns="http://www.w3.org/2000/svg" id="link" viewBox="0 0 64 64" fill="#ccd1d6" width="20" height="20"><path d="M27.515 39.735c-.832 0-1.663-.317-2.298-.952-5.946-5.946-5.946-15.62 0-21.567l12-12C40.097 2.336 43.927.75 48 .75s7.903 1.585 10.784 4.465c5.946 5.946 5.946 15.62 0 21.567L53.3 32.267c-1.27 1.27-3.328 1.27-4.597 0s-1.27-3.327 0-4.596l5.485-5.484c3.412-3.412 3.412-8.963 0-12.374C52.535 8.16 50.338 7.25 48 7.25s-4.534.91-6.186 2.562l-12 12c-3.412 3.412-3.412 8.963 0 12.374 1.27 1.27 1.27 3.327 0 4.596-.634.635-1.466.952-2.298.952z"/><path d="M16 63.25c-4.073 0-7.903-1.586-10.783-4.466-5.946-5.946-5.946-15.62 0-21.567l5.485-5.485c1.27-1.27 3.327-1.27 4.596 0s1.27 3.327 0 4.596l-5.485 5.485c-3.412 3.412-3.412 8.963 0 12.374 1.652 1.653 3.85 2.563 6.187 2.563s4.535-.91 6.187-2.563l12-12c3.412-3.412 3.412-8.963 0-12.374-1.27-1.27-1.27-3.327 0-4.596s3.327-1.27 4.596 0c5.946 5.946 5.946 15.62 0 21.567l-12 12c-2.88 2.88-6.71 4.467-10.784 4.467z"/></svg>
