<svg xmlns="http://www.w3.org/2000/svg" id="linkedin" fill="#ffffff" viewBox="0 0 514.4824 601.0869" width="20" height="20"><path d="M0 133.8c0-16.548 5.792-30.202 17.377-40.96 11.585-10.756 26.645-16.134 45.18-16.134 18.204 0 32.933 5.295 44.187 15.887 11.585 10.923 17.377 25.156 17.377 42.698 0 15.89-5.625 29.128-16.88 39.72-11.584 10.923-26.81 16.384-45.675 16.384h-.498c-18.204 0-32.933-5.46-44.186-16.384C5.628 164.087 0 150.35 0 133.8zm6.454 434.426V236.574h110.22v331.652H6.454zm171.287 0c.663-99.96.995-177.576.995-232.852s-.332-88.21-.994-98.8h110.22v47.166l-.495.993h.496v-.993c23.833-36.74 57.097-55.11 99.795-55.11 38.064 0 68.68 12.66 91.85 37.982 23.17 25.32 34.754 62.473 34.754 111.46v190.154H404.14V390.98c0-49.98-18.537-74.97-55.608-74.97-14.232 0-26.065 3.89-35.498 11.67-9.433 7.777-16.467 17.293-21.1 28.547-2.65 6.288-3.973 15.225-3.973 26.81v185.188H177.74z"/></svg>
