<svg xmlns="http://www.w3.org/2000/svg" fill="#ffffff" id="twitter" viewBox="0 0 640.0171 601.0869" width="20" height="20"><path d="M0 530.155c10.42 1.015 20.826 1.548 31.22 1.548 61.05 0 115.528-18.73 163.387-56.17-28.424-.352-53.933-9.04-76.477-26.043-22.57-16.99-37.984-38.675-46.323-65.056 6.933 1.418 15.102 2.095 24.456 2.095 12.15 0 23.767-1.575 34.862-4.684-30.517-5.867-55.766-20.892-75.71-44.997-19.954-24.132-29.92-51.97-29.92-83.528v-1.574c18.396 10.42 38.312 15.806 59.828 16.13-18.017-11.798-32.34-27.304-42.915-46.57-10.576-19.24-15.87-40.13-15.87-62.674 0-23.598 6.087-45.608 18.21-66.096 32.6 40.586 72.42 72.938 119.432 97.056 47 24.09 97.37 37.53 151.158 40.326-2.432-11.447-3.655-21.516-3.655-30.18 0-36.085 12.84-66.954 38.505-92.62 25.68-25.666 56.704-38.505 93.153-38.505 37.79 0 69.702 13.88 95.73 41.64 30.168-6.257 57.928-17.015 83.256-32.26-9.718 31.558-28.815 55.845-57.238 72.847 25.328-3.11 50.304-10.056 74.93-20.814-16.652 26.017-38.337 48.742-65.057 68.152v17.197c0 34.992-5.124 70.128-15.348 105.355-10.212 35.214-25.85 68.853-46.83 100.972-20.996 32.065-46.05 60.62-75.19 85.57-29.126 24.976-64.08 44.853-104.85 59.59-40.754 14.753-84.553 22.09-131.397 22.09C128.862 588.94 61.74 569.35 0 530.154z"/></svg>
